<?xml version="1.0" standalone="no"?>
<!DOCTYPE svg PUBLIC "-//W3C//DTD SVG 1.1//EN" "http://www.w3.org/Graphics/SVG/1.1/DTD/svg11.dtd" >
<svg xmlns="http://www.w3.org/2000/svg">
<metadata></metadata>
<defs>
<font id="section_mediumregular" horiz-adv-x="1040" >
<font-face units-per-em="2048" ascent="1638" descent="-410" />
<missing-glyph horiz-adv-x="411" />
<glyph horiz-adv-x="2048" />
<glyph horiz-adv-x="2048" />
<glyph horiz-adv-x="682" />
<glyph unicode="&#xd;" horiz-adv-x="497" />
<glyph unicode=" "  horiz-adv-x="411" />
<glyph unicode="&#x09;" horiz-adv-x="411" />
<glyph unicode="&#xa0;" horiz-adv-x="411" />
<glyph unicode="!" horiz-adv-x="645" d="M227 -8v190h191v-190h-191zM231 1411h183l-13 -1051h-159z" />
<glyph unicode="&#x22;" horiz-adv-x="712" d="M139 1411h166l-22 -418h-121zM410 1411h163l-22 -418h-121z" />
<glyph unicode="#" horiz-adv-x="1177" d="M109 227l22 107h191l67 319h-188l22 107h191l55 262h106l-55 -262h248l55 262h109l-58 -262h195l-22 -107h-195l-68 -319h195l-23 -107h-194l-55 -264h-107l55 264h-249l-56 -264h-106l55 264h-190zM428 334h250l67 319h-247z" />
<glyph unicode="$" horiz-adv-x="872" d="M113 797q0 107 76 162t202 61v217h94v-215q182 -5 234 -12l-10 -146q-122 17 -283 17q-77 0 -116.5 -22t-39.5 -75q0 -33 12 -57t25 -35t41 -30l254 -170q58 -39 91 -71.5t55 -83t22 -116.5q0 -107 -79.5 -163.5t-205.5 -69.5v-217h-92v211q-166 0 -264 12l10 149 q129 -18 260 -18q47 0 83 4.5t67 15t48 31.5t17 51q0 19 -1.5 33t-7.5 26.5t-9.5 19.5t-16.5 17t-17.5 14t-23.5 16t-26 16l-238 155q-35 23 -59 43.5t-50 52.5t-39 76.5t-13 100.5z" />
<glyph unicode="%" horiz-adv-x="1445" d="M147 723q0 160 57 229.5t183 69.5q127 0 183.5 -69.5t56.5 -231.5q0 -160 -56.5 -228.5t-183.5 -68.5q-126 0 -183 69t-57 230zM244 723q0 -124 34 -168.5t109 -44.5q76 0 109.5 44t33.5 167q0 125 -33.5 170t-109.5 45q-75 0 -109 -45t-34 -168zM305 -104l721 1212h113 l-719 -1212h-115zM819 270q0 162 56.5 231.5t183.5 69.5q125 0 181 -70.5t56 -230.5t-55.5 -228.5t-181.5 -68.5q-127 0 -183.5 68.5t-56.5 228.5zM913 270q0 -122 35 -166.5t111 -44.5t109.5 43.5t33.5 167.5t-34 169.5t-109 45.5q-76 0 -111 -45.5t-35 -169.5z" />
<glyph unicode="&#x26;" horiz-adv-x="1198" d="M143 324q0 114 39 194t107 146q11 11 61 51v2q-131 214 -131 385q0 162 57.5 243.5t206.5 81.5t209 -82t60 -243q0 -74 -17 -137t-49.5 -113t-66 -86.5t-80.5 -75.5v-2q131 -211 249 -350q45 85 78 225l150 -47q-42 -171 -119 -297q23 -23 41 -35q52 -43 88 -43 q48 0 98 15l21 -156q-55 -14 -119 -14q-95 0 -223 118q-132 -122 -316 -122q-79 0 -140.5 19.5t-99 51.5t-62 77.5t-33.5 92.5t-9 101zM301 324q0 -97 40.5 -149t145.5 -52q124 0 211 90q-41 46 -87 108t-71.5 98.5t-68.5 102t-45 68.5v2q-125 -121 -125 -268zM373 1102 q0 -123 65 -250l25 -45l35 31q100 100 100 264q0 77 -14.5 118.5t-37 53.5t-63.5 12q-43 0 -64.5 -11.5t-33.5 -51.5t-12 -121z" />
<glyph unicode="'" horiz-adv-x="444" d="M139 1411h166l-22 -418h-121z" />
<glyph unicode="(" horiz-adv-x="534" d="M133 700q0 538 146 953h151q-137 -431 -137 -953q0 -521 137 -952h-151q-146 415 -146 952z" />
<glyph unicode=")" horiz-adv-x="534" d="M102 -252q138 424 138 952q0 529 -138 953h152q145 -412 145 -953q0 -540 -145 -952h-152z" />
<glyph unicode="*" d="M139 1241l39 117l293 -113v2l-10 285h121l-13 -287l293 113l39 -117l-303 -82v2l-2 -6l197 -244l-99 -71l-172 262h-4l-170 -262l-100 71l196 244l-2 4z" />
<glyph unicode="+" horiz-adv-x="1093" d="M111 473v100h385v385h100v-385h387v-100h-387v-387h-100v387h-385z" />
<glyph unicode="," horiz-adv-x="483" d="M98 -219q51 134 68 213l-6 194h190l-6 -176q-22 -49 -63 -123q-23 -43 -66 -108h-117z" />
<glyph unicode="-" horiz-adv-x="684" d="M109 451v141h466v-141h-466z" />
<glyph unicode="." horiz-adv-x="520" d="M164 -2v190h192v-190h-192z" />
<glyph unicode="/" horiz-adv-x="772" d="M68 -252l542 1905h162l-541 -1905h-163z" />
<glyph unicode="0" horiz-adv-x="1038" d="M102 500q0 280 99.5 401t318.5 121t317.5 -121t98.5 -401q0 -281 -98 -399.5t-318 -118.5t-319 119.5t-99 398.5zM264 500q0 -113 15.5 -187t49.5 -115t79 -57t112 -16t112 16t79 57t49.5 115t15.5 187t-15.5 187.5t-49.5 116.5t-79 58.5t-112 16.5t-112 -16.5t-79 -58.5 t-49.5 -116.5t-15.5 -187.5z" />
<glyph unicode="1" horiz-adv-x="630" d="M61 860v141h383v-1001h-155v860h-228z" />
<glyph unicode="2" horiz-adv-x="917" d="M82 0v162l401 323q82 67 102 90q47 58 48 144q0 99 -55 131q-47 27 -181 27q-132 0 -266 -21l-8 150q144 16 272 16q185 0 258 -37q135 -66 135 -262q0 -99 -45 -168.5t-139 -144.5l-285 -228l-63 -41v-2l86 4h453v-143h-713z" />
<glyph unicode="3" horiz-adv-x="849" d="M51 -401l10 147q121 -27 228 -27q315 -3 315 279q0 62 -10 109t-34.5 86t-69 59t-109.5 20h-141v144h122q66 0 110.5 19.5t66.5 56.5t30.5 77.5t8.5 94.5q0 117 -39 159q-53 56 -193 56q-109 -2 -262 -21l-8 148q136 16 272 16q220 0 307 -94q76 -76 76 -258 q0 -205 -131 -314v-6q90 -54 123 -136.5t33 -215.5q0 -108 -34.5 -189.5t-97.5 -131.5t-146 -75t-185 -26q-96 0 -242 23z" />
<glyph unicode="4" horiz-adv-x="1062" d="M82 0v150l344 849h166l-311 -778l-33 -74l4 -6h389l23 416h133v-416h245v-141h-245v-412h-156v412h-559z" />
<glyph unicode="5" horiz-adv-x="915" d="M123 -408l10 150q121 -27 227 -27q146 -3 234 64.5t88 214.5q0 129 -51 197.5t-180 68.5h-301v741h628v-141h-473v-461h162q168 0 260 -88q107 -102 107 -317q0 -207 -130 -313.5t-339 -108.5q-90 0 -242 20z" />
<glyph unicode="6" horiz-adv-x="1042" d="M113 657q1 92 6.5 166t20.5 167.5t49 170.5t85 127q77 77 176.5 108t227.5 31q80 0 151 -14l-10 -147q-76 12 -133 12q-210 3 -291 -78q-109 -109 -123 -459h2q64 49 139 76t138 27q181 0 285 -104t104 -330q0 -112 -31.5 -196t-89 -133.5t-130.5 -74t-161 -24.5 q-90 0 -155 25.5t-119 86.5q-67 76 -104 231t-37 332zM272 594q2 -131 28.5 -239t70.5 -160q61 -68 161 -68q37 0 70.5 7t68 25.5t59.5 48.5t40.5 79.5t15.5 113.5q0 83 -19.5 143t-54.5 92t-74.5 46t-86.5 14q-62 0 -131.5 -25.5t-98 -43.5t-49.5 -33z" />
<glyph unicode="7" horiz-adv-x="845" d="M41 860v141h743v-102l-475 -1309h-164l412 1137l51 131l-2 2h-565z" />
<glyph unicode="8" horiz-adv-x="1052" d="M113 385q0 128 39 208t124 140l-2 2q-64 51 -93 127.5t-29 194.5q0 107 27.5 181.5t80 114.5t116.5 57t150 17q87 0 151.5 -17t117.5 -57t80.5 -114.5t27.5 -181.5q0 -117 -30 -194t-95 -128v-2q85 -60 123.5 -140t38.5 -208q0 -401 -414 -401q-413 0 -413 401zM272 385 q0 -65 16 -112.5t39.5 -73t60.5 -40t68 -18.5t72 -4t71.5 3.5t67 18.5t60 40.5t39.5 73t16 112.5q0 130 -62.5 204.5t-193.5 74.5t-192.5 -74.5t-61.5 -204.5zM307 1059q0 -124 50 -189t169 -65t170.5 65t51.5 189q0 60 -13.5 103t-32.5 65.5t-51.5 35t-58.5 15t-66 2.5 q-39 0 -64.5 -2.5t-57.5 -15t-51 -35t-32.5 -65.5t-13.5 -103z" />
<glyph unicode="9" horiz-adv-x="1042" d="M102 594q0 112 32 196.5t89.5 134t130 73.5t160.5 24q90 0 155 -25t119 -86q68 -75 105 -230.5t37 -332.5q0 -471 -160 -633q-78 -77 -177.5 -107t-227.5 -30q-61 -2 -150 12l8 148q79 -12 135 -12q212 0 289 77q36 36 61 91.5t37.5 123.5t18 122.5t8.5 123.5h-4 q-64 -49 -139 -76.5t-137 -27.5q-182 0 -286 104t-104 330zM258 602q0 -82 19.5 -141.5t54 -91.5t74 -46t86.5 -14q33 0 68 7t62.5 17t55 23t44.5 23t33 20t17 11q-2 131 -29 239.5t-71 159.5q-60 70 -160 70q-48 0 -89.5 -12.5t-80.5 -41.5t-61.5 -86t-22.5 -137z" />
<glyph unicode=":" horiz-adv-x="581" d="M197 -2v190h190v-190h-190zM197 502v190h190v-190h-190z" />
<glyph unicode=";" horiz-adv-x="581" d="M133 -219q48 127 70 213q-6 124 -8 194h190l-6 -176q-28 -64 -64 -123q-28 -51 -65 -108h-117zM190 502v190h191v-190h-191z" />
<glyph unicode="&#x3c;" horiz-adv-x="1009" d="M119 442v142l788 348v-111l-631 -274l-75 -31l75 -35l631 -276v-109z" />
<glyph unicode="=" horiz-adv-x="1091" d="M127 340v100h836v-100h-836zM127 604v101h836v-101h-836z" />
<glyph unicode="&#x3e;" horiz-adv-x="1009" d="M102 96l2 109l631 276l76 35l-76 31l-633 274v111l789 -348v-142z" />
<glyph unicode="?" horiz-adv-x="708" d="M86 1413q73 14 242 14q211 0 288 -79q52 -55 52 -156q0 -58 -12 -102t-39.5 -79t-55.5 -58t-76 -56q-11 -7 -43 -26.5t-47.5 -31.5t-37 -33t-31 -46.5t-9.5 -57.5q0 -54 23 -110l61 -135l-139 -72l-72 154q-30 67 -30 163q0 122 69 191q22 22 51 41.5t70.5 44.5t67.5 43 q38 26 50.5 36t28 29.5t18.5 41t3 59.5q0 102 -192 102q-108 0 -230 -24zM227 -2v190h191v-190h-191z" />
<glyph unicode="@" horiz-adv-x="1693" d="M131 473q0 832 719 832q352 0 521 -202t169 -626q0 -74 -8 -138.5t-28.5 -126t-52.5 -105.5t-83 -70.5t-117 -26.5q-70 0 -120.5 26t-77.5 70.5t-37.5 98t-5.5 114.5q-26 -54 -64 -104.5t-86.5 -96t-109.5 -73t-123 -27.5q-83 0 -136 40t-71 107.5t-15 146t25 165.5 q25 99 73.5 188.5t98.5 139.5q117 117 293 117q143 -3 319 -84q-41 -191 -77 -361q-16 -71 -19.5 -133t7 -113.5t42.5 -81.5t84 -30q43 0 76 26t51 64t29 89.5t14.5 93.5t3.5 85q0 198 -36 335t-110.5 218.5t-178.5 117.5t-250 36q-147 0 -254.5 -37t-186 -118.5t-118 -220 t-39.5 -335.5t36.5 -333.5t111.5 -217.5t179 -117t250 -36q183 0 308 71l18 -123q-153 -69 -326 -69q-354 0 -526 201t-172 624zM546.5 251.5q5.5 -49.5 33 -78t75.5 -28.5q65 0 148 84.5t142.5 187t74.5 171.5l41 164q-80 41 -189 41q-102 0 -176 -74q-29 -33 -64.5 -99.5 t-58.5 -142.5q-18 -64 -25 -120t-1.5 -105.5z" />
<glyph unicode="A" horiz-adv-x="1163" d="M51 0l410 1423h241l410 -1423h-176l-86 305h-537l-86 -305h-176zM356 459h451l-189 680l-34 145h-2l-37 -143z" />
<glyph unicode="B" horiz-adv-x="1071" d="M154 0v1411h503q71 0 124 -17.5t87.5 -49t56 -79t30 -102.5t8.5 -125q0 -100 -45.5 -190.5t-118.5 -118.5v-2q88 -24 139 -119.5t51 -210.5q0 -397 -352 -397h-483zM319 799h293q108 0 149.5 63t41.5 176q0 55 -6 93t-22 73t-49.5 52.5t-84.5 17.5h-322v-475zM322 145 h296q63 0 105 17.5t64 53t30 78t8 103.5q0 117 -47.5 184.5t-165.5 67.5h-290v-504z" />
<glyph unicode="C" horiz-adv-x="1034" d="M102 707q0 387 131.5 553.5t430.5 166.5q181 0 309 -24l-10 -162q-175 31 -301 31q-101 0 -169 -25t-118 -88t-73 -174t-23 -278q0 -134 15.5 -232t45 -162t77.5 -102.5t106.5 -54t138.5 -15.5q136 0 301 33l10 -164q-131 -24 -309 -24q-299 0 -430.5 167.5t-131.5 553.5 z" />
<glyph unicode="D" horiz-adv-x="1202" d="M154 0v1411h434q137 0 208.5 -20t141.5 -84q162 -151 162 -605q0 -434 -150 -587q-69 -70 -143.5 -92.5t-218.5 -22.5h-434zM322 158h202q80 0 118 2t88.5 18t82.5 49q107 107 107 478q0 372 -109 481q-32 33 -82.5 49t-88 18t-116.5 2h-202v-1097z" />
<glyph unicode="E" horiz-adv-x="974" d="M154 0v1411h776v-154h-611v-456h433v-152h-433v-495h611v-154h-776z" />
<glyph unicode="F" horiz-adv-x="942" d="M154 0v1411h776v-154h-611v-456h433v-152h-433v-649h-165z" />
<glyph unicode="G" horiz-adv-x="1200" d="M102 707q0 382 140.5 551t443.5 169q179 0 330 -22l-10 -162q-121 29 -322 29q-102 0 -173 -25.5t-125.5 -88t-80.5 -175t-26 -278.5q0 -134 18 -232t50 -162t83.5 -102.5t112 -54t141.5 -15.5q163 0 236 33v473h165v-606q-78 -21 -194.5 -39t-204.5 -18q-302 0 -443 171 t-141 554z" />
<glyph unicode="H" horiz-adv-x="1269" d="M154 0v1411h165v-610h629v610h166v-1411h-166v649h-629v-649h-165z" />
<glyph unicode="I" horiz-adv-x="475" d="M154 0v1411h165v-1411h-165z" />
<glyph unicode="J" horiz-adv-x="716" d="M0 0l10 154q121 -17 240 -17q40 0 61 1.5t41.5 9.5t28.5 19.5t15 38t8.5 59t1.5 87.5v1059h167v-1059q-1 -116 -13.5 -184t-49.5 -112t-96 -59t-160 -15q-148 0 -254 18z" />
<glyph unicode="K" horiz-adv-x="1069" d="M154 0v1411h165v-682h5l507 682h195l-442 -588l473 -823h-193l-387 674h-6l-152 -205v-469h-165z" />
<glyph unicode="L" horiz-adv-x="923" d="M154 0v1411h165v-1257h592v-154h-757z" />
<glyph unicode="M" horiz-adv-x="1626" d="M154 0v1411h297l317 -1081l47 -172h4l43 172l316 1081h295v-1411h-166v1266h-4l-72 -260l-305 -1006h-226l-307 1010l-67 252h-7v-1262h-165z" />
<glyph unicode="N" horiz-adv-x="1286" d="M154 0v1411h266l469 -1051l74 -182h4v1233h166v-1411h-259l-479 1057l-71 172h-5v-1229h-165z" />
<glyph unicode="O" horiz-adv-x="1282" d="M102 702q0 392 122 558.5t419 166.5q295 0 416 -167t121 -558q0 -390 -121 -555t-416 -165q-297 0 -419 165t-122 555zM279 705q0 -136 13.5 -232t39.5 -161t70.5 -102.5t101.5 -53t137 -15.5t136 15.5t100 52.5t70 102t39 161t13 233q0 136 -13 232.5t-39 162t-70 103 t-100 53.5t-136 16q-134 0 -210 -47.5t-114 -171t-38 -348.5z" />
<glyph unicode="P" horiz-adv-x="980" d="M154 0v1411h473q92 0 158.5 -33t104 -93.5t54.5 -134.5t17 -167q0 -95 -16.5 -168.5t-53.5 -133t-103.5 -91t-160.5 -31.5h-308v-559h-165zM319 700h299q49 0 84.5 16.5t55 41t30.5 64t14 75.5t3 86q0 39 -2.5 70t-9 66t-19.5 60t-32.5 47t-50 33t-70.5 11h-302v-570z " />
<glyph unicode="Q" horiz-adv-x="1282" d="M102 702q0 392 122 558.5t419 166.5q295 0 416 -167t121 -558q0 -352 -95.5 -517.5t-324.5 -194.5v-4q56 -16 123.5 -54t125.5 -65t113 -27q51 0 138 23l10 -150q-83 -22 -148 -22q-70 0 -138.5 25.5t-115 56.5t-107.5 56.5t-118 25.5q-108 0 -289 -76l-20 153 q92 40 180 56v4q-223 32 -317.5 198.5t-94.5 511.5zM279 705q0 -136 13.5 -232t39.5 -161t70.5 -102.5t101.5 -53t137 -15.5t136 15.5t100 52.5t70 102t39 161t13 233q0 136 -13 232.5t-39 162t-70 103t-100 53.5t-136 16q-134 0 -210 -47.5t-114 -171t-38 -348.5z" />
<glyph unicode="R" d="M154 0v1411h479q93 0 158.5 -30.5t102 -88t52 -129t15.5 -164.5q0 -85 -12.5 -149.5t-42 -117t-81.5 -84t-127 -40.5v-4l267 -604h-172l-263 600h-211v-600h-165zM319 741h308q36 0 63.5 7t46 18.5t31.5 31.5t20.5 39t11 49t4.5 53.5t1 59.5q0 50 -2.5 83t-12.5 71.5 t-28 61t-51.5 38t-81.5 15.5l-310 2v-529z" />
<glyph unicode="S" horiz-adv-x="921" d="M55 1124q0 102 55.5 171.5t147 100.5t215.5 31q224 0 318 -12l-11 -164q-180 23 -311 23q-110 0 -177 -35.5t-67 -114.5q0 -80 25.5 -128t77.5 -87l313 -231q61 -45 96.5 -77.5t68 -77t46.5 -97.5t14 -123q0 -82 -37 -144.5t-102.5 -100.5t-148.5 -57t-181 -19 q-209 0 -319 14l12 164q164 -25 311 -25q64 0 112.5 6.5t93.5 23.5t69 52t24 86q0 47 -6 77.5t-25.5 57t-35.5 40.5t-57 45q-4 3 -7 5t-7 5t-7 6l-297 219q-33 24 -51.5 39t-46.5 41t-43.5 51.5t-31.5 60.5t-23 78.5t-7 95.5z" />
<glyph unicode="T" horiz-adv-x="960" d="M33 1257v154h895v-156h-365v-1255h-166v1257h-364z" />
<glyph unicode="U" horiz-adv-x="1230" d="M143 381v1030h166v-1038q0 -80 46 -135.5t113 -79t146 -23.5q58 0 111.5 14t98.5 41.5t71.5 75t26.5 107.5v1038h165v-1030q0 -75 -22 -138t-59.5 -105t-84.5 -73.5t-101.5 -49t-104.5 -25.5t-99 -8q-42 0 -85 5.5t-90 19t-89.5 34t-81 52.5t-66.5 72t-44.5 95.5 t-16.5 120.5z" />
<glyph unicode="V" horiz-adv-x="1171" d="M55 1409h176l318 -1126l35 -140h4l35 140l317 1126h176l-409 -1423h-242z" />
<glyph unicode="W" horiz-adv-x="1771" d="M76 1409h174l233 -1130l21 -148h4l22 150l228 1128h256l233 -1130l23 -148h2l22 150l230 1128h172l-303 -1423h-246l-232 1087l-26 154h-2l-29 -154l-229 -1087h-248z" />
<glyph unicode="X" horiz-adv-x="1142" d="M41 0l434 705l-430 706h201l327 -563h5l323 563h201l-428 -706l428 -705h-201l-323 563h-5l-331 -563h-201z" />
<glyph unicode="Y" horiz-adv-x="1075" d="M31 1411h186l320 -672h4l313 672h190l-423 -825v-586h-166v588z" />
<glyph unicode="Z" horiz-adv-x="1005" d="M66 0v102l614 1069l51 86l-2 3l-102 -3h-561v154h874v-117l-625 -1083l-36 -59h2l92 2h567v-154h-874z" />
<glyph unicode="[" horiz-adv-x="577" d="M164 -252v1905h346v-154h-180v-1595h180v-156h-346z" />
<glyph unicode="\" horiz-adv-x="772" d="M0 1653h164l541 -1905h-162z" />
<glyph unicode="]" horiz-adv-x="577" d="M66 -96h180v1595h-180v154h346v-1905h-346v156z" />
<glyph unicode="^" horiz-adv-x="1083" d="M106 477l381 936h111l379 -936h-150l-254 645l-28 90l-33 -88l-256 -647h-150z" />
<glyph unicode="_" horiz-adv-x="1286" d="M-4 0h1294v-100h-1294v100z" />
<glyph unicode="`" d="M342 1405h190l117 -299h-121z" />
<glyph unicode="a" horiz-adv-x="897" d="M72 244q0 191 133 258q21 10 47.5 18t49.5 13.5t57 10t55 7t59 4.5t53.5 2.5t55 2t47.5 1.5v156q0 129 -172 129q-65 0 -152 -15t-147 -36l-11 147q144 35 324 35q311 0 311 -238v-739h-118l-13 53h-6q-122 -73 -295 -73q-122 0 -200 69t-78 195zM231 248 q0 -58 36.5 -94.5t109.5 -36.5q136 0 252 69v250q-256 -6 -340 -51q-58 -31 -58 -137z" />
<glyph unicode="b" horiz-adv-x="993" d="M133 0v1475h158v-568l2 2q140 70 266 70q187 0 269.5 -121t82.5 -379q0 -76 -9 -143t-33.5 -133.5t-63.5 -114t-102.5 -77t-145.5 -29.5q-155 0 -285 75h-4l-16 -57h-119zM289 190q40 -25 114.5 -45t147.5 -20q201 0 201 354q0 197 -44.5 277t-150.5 80q-73 0 -152 -25.5 t-116 -54.5v-566z" />
<glyph unicode="c" horiz-adv-x="808" d="M82 477q0 265 104 382.5t318 117.5q156 0 244 -16l-11 -148q-140 23 -233 23q-50 0 -88 -9.5t-72 -34t-55.5 -64.5t-34 -103t-12.5 -148t12.5 -147.5t34 -101.5t55.5 -62.5t72 -32t88 -8.5q121 0 233 22l11 -147q-99 -18 -244 -18q-215 0 -318.5 115.5t-103.5 379.5z" />
<glyph unicode="d" horiz-adv-x="991" d="M82 477q0 269 92.5 384.5t302.5 115.5q131 0 221 -37h4v535h156v-1475h-119l-14 57h-6q-127 -75 -285 -75q-187 0 -269.5 118.5t-82.5 376.5zM242 477q0 -196 46 -274t154 -78q73 0 146.5 20t113.5 45v601q-62 26 -110.5 36.5t-114.5 10.5q-83 0 -132 -29.5t-76 -109.5 t-27 -222z" />
<glyph unicode="e" horiz-adv-x="905" d="M82 477q0 268 95 384t308 116q172 0 250 -86q88 -94 88 -313v-119h-581q1 -100 20 -167.5t55.5 -103t80.5 -49.5t106 -14q110 0 276 35l11 -148q-146 -30 -287 -30q-215 0 -318.5 115.5t-103.5 379.5zM248 582h418q0 168 -54 217q-37 37 -127 37q-60 0 -99.5 -11t-70 -39 t-46.5 -77.5t-21 -126.5z" />
<glyph unicode="f" horiz-adv-x="739" d="M61 815v121l148 22v259q2 135 69 207.5t199 72.5q102 0 141 -4.5t121 -24.5l-8 -143q-115 37 -237 37q-77 0 -104.5 -47t-27.5 -127q3 -124 3 -230h309v-143h-309v-815h-156v815h-148z" />
<glyph unicode="g" horiz-adv-x="972" d="M82 -244q0 53 28.5 112t75.5 101v2q-3 2 -7 4.5t-15 13t-19 22t-15 30.5t-7 39q0 67 53 125l62 67v2q-136 93 -136 322q0 381 359 381q72 0 137 -19q48 -14 123 -14q92 0 201 23l10 -142q-27 -7 -168 -18v-4q49 -96 49 -209q0 -202 -90.5 -290.5t-261.5 -88.5 q-38 0 -92 8l-52 -59q-11 -12 -18.5 -25.5t-10.5 -28.5t9.5 -24.5t40.5 -9.5h291q142 0 205 -66.5t63 -177.5q0 -134 -80 -207q-46 -44 -117.5 -69t-133.5 -31t-146 -6q-192 0 -262 63q-76 69 -76 174zM246 -213q0 -59 35 -94q33 -33 151 -33q162 0 236 39q71 36 71 139 q0 42 -26 74.5t-92 32.5h-267q-108 -75 -108 -158zM254 596q0 -135 53.5 -187.5t151.5 -52.5t152.5 52.5t54.5 187.5q0 132 -54.5 186t-150.5 54t-151.5 -54t-55.5 -186z" />
<glyph unicode="h" horiz-adv-x="991" d="M133 0v1475h156v-566h2q89 42 158.5 55t158.5 13q50 0 95.5 -12.5t86 -39t65 -74.5t24.5 -112v-739h-156v713q0 61 -42.5 94t-88.5 33q-91 0 -177 -22.5t-126 -53.5v-764h-156z" />
<glyph unicode="i" horiz-adv-x="438" d="M123 1163v193h192v-193h-192zM143 0v958h156v-958h-156z" />
<glyph unicode="j" horiz-adv-x="446" d="M-164 -467l8 148q99 -21 183 -21q33 0 50.5 1t33.5 9.5t22.5 18.5t11.5 36t6 54.5t1 81.5v1097h153v-1110q0 -107 -10.5 -167.5t-42 -99.5t-82 -51.5t-139.5 -12.5q-117 0 -195 16zM131 1163v191h191v-191h-191z" />
<glyph unicode="k" horiz-adv-x="878" d="M133 0v1475h158v-932h4l39 51l289 364h192l-289 -356l332 -602h-172l-233 420l-27 53h-6l-129 -160v-313h-158z" />
<glyph unicode="l" horiz-adv-x="428" d="M135 0v1475h158v-1475h-158z" />
<glyph unicode="m" horiz-adv-x="1441" d="M123 0v958h119l14 -57l4 -2q144 78 289 78q68 0 118 -17t93 -65h2q147 82 297 82h7h7q110 0 183 -58t73 -180v-739h-155v705q0 62 -35.5 93t-81.5 31q-84 0 -142 -15t-110 -48l-2 -766h-154v713q0 62 -36.5 94.5t-82.5 32.5q-144 0 -251 -76v-764h-156z" />
<glyph unicode="n" horiz-adv-x="980" d="M123 0v958h121l12 -57l4 -2q93 49 167.5 63.5t170.5 14.5q39 0 76 -7.5t73 -25.5t62.5 -44.5t42.5 -68t16 -92.5v-739h-155v713q0 61 -42.5 94t-88.5 33q-91 0 -177 -22.5t-126 -53.5v-764h-156z" />
<glyph unicode="o" horiz-adv-x="1005" d="M82 477q0 265 104 382.5t318 117.5q212 0 316 -118t104 -382t-103.5 -379.5t-316.5 -115.5q-214 0 -318 116t-104 379zM242 477q0 -85 12.5 -147.5t34 -101.5t55.5 -62.5t72 -32t88 -8.5t88 8.5t71.5 32t55 62.5t33.5 101.5t12 147.5q0 106 -18 177.5t-53.5 110.5 t-80.5 55t-108 16q-50 0 -88 -9.5t-72 -34t-55.5 -64.5t-34 -103t-12.5 -148z" />
<glyph unicode="p" horiz-adv-x="991" d="M133 -475v1431h119l16 -55h4q128 74 285 74q188 0 270 -118t82 -378q0 -268 -92.5 -383.5t-300.5 -115.5q-128 0 -223 36h-4v-491h-156zM289 168q64 -27 112.5 -38t114.5 -11q83 0 132 29t75.5 109t26.5 222q0 197 -46.5 274.5t-154.5 77.5q-72 0 -146 -20t-114 -45v-598 z" />
<glyph unicode="q" horiz-adv-x="993" d="M82 479q0 75 9 141.5t33 133.5t62.5 114t102 77t145.5 30q160 0 285 -74h6l16 55h119v-1431h-158v524h-2q-138 -69 -266 -69q-187 0 -269.5 120t-82.5 379zM242 479q0 -199 44.5 -278.5t149.5 -79.5q74 0 153 26t116 56v563q-40 25 -115 45t-148 20q-200 0 -200 -352z " />
<glyph unicode="r" horiz-adv-x="632" d="M123 0v958h117l20 -98h6q52 60 106 88.5t136 28.5q65 0 94 -10l-8 -146q-33 6 -105 6q-56 0 -116.5 -37.5t-93.5 -89.5v-700h-156z" />
<glyph unicode="s" horiz-adv-x="796" d="M82 741q0 61 29.5 108t79 74t108 40.5t123.5 13.5q179 0 242 -12l-11 -146q-128 21 -229 21q-69 0 -124.5 -25.5t-55.5 -73.5q0 -42 21.5 -69t60.5 -49l219 -129q47 -27 74 -47t54.5 -51t39.5 -72.5t12 -98.5q0 -80 -53.5 -137t-132 -81.5t-170.5 -24.5q-184 0 -250 12 l10 147q134 -22 240 -22q51 0 94 10t74.5 35.5t31.5 64.5q0 15 -2.5 27.5t-5 22t-11 19.5t-12.5 15t-16.5 14t-17 12t-21.5 13t-22 13l-201 118q-32 19 -48.5 30t-45.5 35.5t-44 48.5t-27.5 62t-12.5 82z" />
<glyph unicode="t" horiz-adv-x="710" d="M61 815v121l148 22v285h156v-285h288v-141h-288v-643q0 -24 9 -36.5t40 -12.5q67 0 188 22l8 -147q-94 -18 -241 -18q-86 0 -123 42t-37 132v659h-148z" />
<glyph unicode="u" horiz-adv-x="980" d="M113 219v739h155v-712q0 -61 42.5 -94t90.5 -33q92 0 177 22.5t124 53.5v763h156v-958h-119l-14 57l-4 2q-94 -48 -169 -62.5t-169 -14.5q-39 0 -76 7.5t-73 25t-62.5 44t-42.5 68t-16 92.5z" />
<glyph unicode="v" horiz-adv-x="866" d="M27 958h168l206 -694l29 -117l2 -2l31 117l209 696h168l-308 -970h-198z" />
<glyph unicode="w" horiz-adv-x="1396" d="M51 958h166l156 -690l28 -141h5l26 143l154 688h217l166 -694l26 -145h4l27 147l152 692h168l-236 -970h-221l-168 696l-23 115h-4l-22 -113l-164 -698h-221z" />
<glyph unicode="x" horiz-adv-x="835" d="M37 958h184l195 -350h4l194 350h183l-289 -479l287 -479h-181l-194 350h-6l-195 -350h-180l287 479z" />
<glyph unicode="y" horiz-adv-x="862" d="M0 -467l10 148q78 -21 121 -21q40 0 72.5 15.5t53 36t38.5 57.5t27 63t22 70l16 59l-337 997h167l213 -663l29 -117h2l31 117l203 663h168l-357 -1112q-15 -49 -27 -82t-29.5 -71t-35 -62t-43.5 -48t-56 -37t-70 -21t-89 -8q-51 0 -129 16z" />
<glyph unicode="z" horiz-adv-x="813" d="M72 0v119l440 641l39 53l-4 2h-453v143h645v-118l-436 -637l-43 -62l2 -2l62 4h417l-2 -143h-667z" />
<glyph unicode="{" horiz-adv-x="620" d="M12 678v41q109 46 144 70q83 58 86 169q1 13 0 27l-21 520q-4 93 24 120.5t107 27.5h203v-156h-127q-23 0 -31 -12t-8 -41l19 -504q9 -178 -119 -240v-2q128 -62 119 -241l-19 -500q0 -29 8 -41t31 -12h127v-156h-203q-79 0 -107 27.5t-24 120.5l21 516q3 60 -10 102 t-50.5 72.5t-64 44.5t-89.5 40q-5 2 -8.5 3.5t-7.5 3.5z" />
<glyph unicode="|" horiz-adv-x="448" d="M174 -252v1905h102v-1905h-102z" />
<glyph unicode="}" horiz-adv-x="620" d="M66 -96h127q23 0 31.5 12.5t6.5 40.5l-18 500q-4 181 119 241v2q-73 36 -97 98.5t-22 141.5l18 504q2 28 -6.5 40.5t-31.5 12.5h-127v156h202q80 0 108 -27.5t25 -120.5l-22 -520q-2 -60 11 -102.5t50 -72.5t64.5 -44.5t89.5 -40.5q9 -4 14 -6v-41q-109 -46 -144 -71 q-82 -58 -85 -171v-24l22 -516q3 -93 -25 -120.5t-108 -27.5h-202v156z" />
<glyph unicode="~" horiz-adv-x="1175" d="M90 528q92 59 147 80t146 21q66 0 142 -24.5t146.5 -48.5t123.5 -24q54 0 107.5 16t83.5 31.5t89 49.5l10 -117q-82 -54 -145 -75t-154 -21q-69 0 -126 12.5t-152 50.5q-79 29 -135 29q-102 0 -273 -105z" />
<glyph unicode="&#xa1;" horiz-adv-x="645" d="M227 768v190h191v-190h-191zM231 -461l13 1051h159l9 -1051h-181z" />
<glyph unicode="&#xa2;" horiz-adv-x="886" d="M102 502q0 252 96.5 378t295.5 140l-2 217h92v-215q102 -5 221 -29l-12 -149q-79 20 -129 27.5t-123 7.5q-66 0 -113.5 -16.5t-85.5 -57t-57 -115.5t-19 -186q0 -112 18.5 -187.5t56.5 -116t85.5 -57t114.5 -16.5q49 0 94.5 5t71 10t86.5 18l10 -148q-110 -25 -219 -28 v-215h-92v215q-198 14 -294 139.5t-96 378.5z" />
<glyph unicode="&#xa3;" horiz-adv-x="989" d="M154 0v141h137q22 30 22 103v170h-159v121l159 22l-2 94q-1 77 4 131t18.5 97t34.5 69t55.5 43.5t78.5 24t106 6.5q128 0 234 -18l-11 -142q-104 19 -227 19q-26 0 -43.5 -1t-33 -6.5t-24.5 -11t-16.5 -20t-11 -28t-5.5 -41.5t-2.5 -53t-0.5 -69v-94h264v-143h-264v-133 q0 -31 -7 -76.5t-18 -65.5v-2l88 4h357v-141h-733z" />
<glyph unicode="&#xa4;" horiz-adv-x="882" d="M-20 367v92h100q-2 14 -2 43q0 25 2 39h-100v92h106q54 389 453 389q130 0 262 -29l-13 -149q-79 20 -128.5 27.5t-122.5 7.5q-115 0 -188.5 -54.5t-96.5 -191.5h410l-41 -92h-379v-37q0 -31 2 -45h338l-41 -92h-289q25 -133 97.5 -186.5t187.5 -53.5q49 0 94.5 5t70 10 t86.5 18l11 -148q-137 -30 -260 -30q-397 0 -451 385h-108z" />
<glyph unicode="&#xa5;" horiz-adv-x="989" d="M82 1001h176l238 -436l233 436h178l-325 -563h256v-92h-265v-80h265v-92h-265v-174h-157v174h-242v92h242v80h-242v92h234z" />
<glyph unicode="&#xa6;" horiz-adv-x="448" d="M174 -252v885h102v-885h-102zM174 774v879h102v-879h-102z" />
<glyph unicode="&#xa7;" horiz-adv-x="983" d="M55 645q0 159 129 238q-67 90 -67 241q0 102 55.5 171.5t147 100.5t215.5 31q225 0 319 -12l-12 -164q-176 23 -312 23q-110 0 -176.5 -35.5t-66.5 -114.5t26 -127.5t78 -87.5l311 -231q61 -45 97 -77.5t68.5 -77t46.5 -97.5t14 -123q0 -160 -133 -244q71 -89 71 -235 q0 -108 -65.5 -182t-168.5 -106t-235 -32q-217 0 -319 13l12 164q164 -25 311 -25q64 0 113 7t93.5 24t68.5 51.5t24 85.5q0 21 -2 38.5t-3 31t-8 27.5t-9 22.5t-13.5 21.5t-15 17.5t-20 18.5t-21 17.5t-26 19.5t-27.5 21l-297 220q-42 31 -62.5 48t-52.5 52t-47.5 67.5 t-28 84.5t-12.5 114zM225 645q0 -80 25.5 -128t77.5 -87l313 -231l41 -31q80 47 80 135q0 21 -2 38.5t-3 31t-8 28t-9 22.5t-14 21t-15 18t-20 19t-21 17t-26 20t-28 21l-297 219l-20 14q-74 -48 -74 -127z" />
<glyph unicode="&#xa8;" d="M272 1171v172h172v-172h-172zM600 1171v172h172v-172h-172z" />
<glyph unicode="&#xa9;" horiz-adv-x="1212" d="M123 500q0 276 125 399t358 123q234 0 359 -123t125 -399q0 -275 -125 -396.5t-359 -121.5q-115 0 -201.5 27.5t-151 87.5t-97.5 161t-33 242zM242 500q0 -95 18.5 -167.5t50.5 -118t79.5 -74t99.5 -39.5t116 -11q82 0 144.5 19t114 63t79 127t27.5 201q0 95 -18.5 167.5 t-50.5 118.5t-79.5 75t-99.5 40.5t-117 11.5q-82 0 -144.5 -19.5t-114 -64.5t-78.5 -128t-27 -201zM379 502q0 141 59.5 210.5t182.5 69.5q63 0 151 -18l-8 -115q-92 21 -146 21q-59 0 -87.5 -33.5t-28.5 -134.5q0 -100 28.5 -134t87.5 -34q58 0 146 20l8 -112 q-88 -21 -154 -21q-239 0 -239 281z" />
<glyph unicode="&#xaa;" horiz-adv-x="759" d="M92 887q0 65 19.5 109.5t58.5 70t83 37.5t107 18q16 2 142 8v97q2 39 -25.5 58.5t-85.5 19.5q-112 0 -233 -41l-11 137q111 29 254 29q244 0 244 -187l2 -547h-115l-8 33h-4q-91 -47 -198 -47q-101 0 -165.5 51t-64.5 154zM240 901q0 -90 94 -90q93 0 168 43v156 q-172 -5 -223 -33q-17 -9 -28 -30.5t-11 -45.5z" />
<glyph unicode="&#xab;" horiz-adv-x="1038" d="M76 453v16l319 385h178l-333 -391l317 -379h-176zM438 453v16l320 385h178l-334 -391l318 -379h-179z" />
<glyph unicode="&#xac;" horiz-adv-x="1353" d="M176 -2v1003h1002v-1003h-1002zM297 121h760v760h-760v-760z" />
<glyph unicode="&#xad;" horiz-adv-x="684" d="M109 451v141h466v-141h-466z" />
<glyph unicode="&#xae;" horiz-adv-x="1212" d="M123 500q0 276 125 399t358 123q234 0 359 -123t125 -399q0 -275 -125 -396.5t-359 -121.5q-115 0 -201.5 27.5t-151 87.5t-97.5 161t-33 242zM242 500q0 -95 18.5 -167.5t50.5 -118t79.5 -74t99.5 -39.5t116 -11q82 0 144.5 19t114 63t79 127t27.5 201q0 95 -18.5 167.5 t-50.5 118.5t-79.5 75t-99.5 40.5t-117 11.5q-82 0 -144.5 -19.5t-114 -64.5t-78.5 -128t-27 -201zM426 231v541h217q42 0 72.5 -14.5t46.5 -40.5t23.5 -55t7.5 -64q0 -125 -82 -158l102 -209h-127l-88 199h-55v-199h-117zM543 530h98q23 0 30 14t7 54q0 39 -7.5 54.5 t-27.5 15.5h-100v-138z" />
<glyph unicode="&#xaf;" d="M242 1182v133h573v-133h-573z" />
<glyph unicode="&#xb0;" horiz-adv-x="679" d="M139 1333q0 83 59 141t142 58t141 -58t58 -141t-58 -140.5t-141 -57.5q-84 0 -142.5 57.5t-58.5 140.5zM225 1333q0 -47 33.5 -79.5t81.5 -32.5q46 0 79.5 32.5t33.5 79.5t-33.5 81t-79.5 34q-47 0 -81 -34t-34 -81z" />
<glyph unicode="&#xb1;" horiz-adv-x="1093" d="M111 537v100h385v321h100v-321h387v-100h-387v-320h-100v320h-385zM113 -2v100h866v-100h-866z" />
<glyph unicode="&#xb2;" horiz-adv-x="2048" />
<glyph unicode="&#xb3;" horiz-adv-x="2048" />
<glyph unicode="&#xb4;" d="M387 1106l117 299h190l-186 -299h-121z" />
<glyph unicode="&#xb5;" horiz-adv-x="1003" d="M133 -434v1392h156v-712q0 -61 42.5 -94t90.5 -33q89 0 174 29.5t129 66.5v743h154v-958h-127l-15 57l-4 2q-94 -49 -163.5 -63t-163.5 -14q-59 0 -117 49v-465h-156z" />
<glyph unicode="&#xb6;" horiz-adv-x="1009" d="M51 844q0 195 86 299t279 104h420v-1505h-140v1386h-143v-1386h-139v702q-195 0 -279 101t-84 299z" />
<glyph unicode="&#xb7;" horiz-adv-x="520" d="M164 393v191h192v-191h-192z" />
<glyph unicode="&#xb8;" d="M336 -401l4 104q77 -25 121 -25q84 0 84 74q0 28 -15.5 46.5t-50 40t-45.5 30.5q-28 25 -28 57q0 13 10.5 35t29.5 53.5t21 34.5h135q-65 -84 -65 -110q0 -13 14 -27q59 -38 86 -72.5t27 -87.5q0 -82 -53 -126t-136 -44q-79 0 -139 17z" />
<glyph unicode="&#xb9;" horiz-adv-x="2048" />
<glyph unicode="&#xba;" horiz-adv-x="815" d="M82 1055q0 196 81 285.5t245 89.5t244.5 -89.5t80.5 -285.5t-80 -283.5t-245 -87.5q-164 0 -245 88t-81 283zM231 1055q0 -73 12.5 -122t37.5 -74t55 -34.5t72 -9.5q43 0 73 9.5t55 34.5t37.5 74t12.5 122q0 74 -12.5 123t-37.5 74.5t-55 35.5t-73 10q-42 0 -72 -10 t-55 -35t-37.5 -74.5t-12.5 -123.5z" />
<glyph unicode="&#xbb;" horiz-adv-x="1038" d="M102 854h179l319 -385v-16l-303 -369h-178l317 379zM465 854h178l320 -385v-16l-306 -369h-176l318 379z" />
<glyph unicode="&#xbc;" horiz-adv-x="497" />
<glyph unicode="&#xbd;" horiz-adv-x="2048" />
<glyph unicode="&#xbe;" horiz-adv-x="2048" />
<glyph unicode="&#xbf;" horiz-adv-x="708" d="M41 -256q0 58 12 102t39.5 79t55 58.5t75.5 55.5q12 8 36 22.5t39 24t34.5 26t31 32.5t19.5 39t8 50q0 57 -22 111l-62 135l139 72l72 -154q31 -70 31 -164q0 -120 -70 -190q-22 -22 -51 -41.5t-70 -44.5t-67 -43q-49 -33 -64.5 -47t-26 -41.5t-10.5 -77.5 q0 -102 193 -102q107 0 229 24l11 -147q-79 -15 -242 -15q-211 0 -289 80q-51 54 -51 156zM291 768v190h190v-190h-190z" />
<glyph unicode="&#xc0;" horiz-adv-x="1163" d="M51 0l410 1423h241l410 -1423h-176l-86 305h-537l-86 -305h-176zM334 1849h190l117 -297h-121zM356 459h451l-189 680l-34 145h-2l-37 -143z" />
<glyph unicode="&#xc1;" horiz-adv-x="1163" d="M51 0l410 1423h241l410 -1423h-176l-86 305h-537l-86 -305h-176zM356 459h451l-189 680l-34 145h-2l-37 -143zM524 1552l117 297h188l-184 -297h-121z" />
<glyph unicode="&#xc2;" horiz-adv-x="1163" d="M51 0l410 1423h241l410 -1423h-176l-86 305h-537l-86 -305h-176zM313 1552l191 291h158l190 -291h-152l-116 201l-117 -201h-154zM356 459h451l-189 680l-34 145h-2l-37 -143z" />
<glyph unicode="&#xc3;" horiz-adv-x="1163" d="M51 0l410 1423h241l410 -1423h-176l-86 305h-537l-86 -305h-176zM274 1729q29 19 78.5 35.5t83.5 15.5q54 -2 146.5 -27t140.5 -27q28 -1 56.5 8.5t42.5 18.5t46 31l13 -137q-27 -19 -77 -36t-83 -16q-54 2 -147.5 28t-141.5 28q-27 1 -55 -9t-41 -17.5t-45 -29.5z M356 459h451l-189 680l-34 145h-2l-37 -143z" />
<glyph unicode="&#xc4;" horiz-adv-x="1163" d="M51 0l410 1423h241l410 -1423h-176l-86 305h-537l-86 -305h-176zM332 1618v172h172v-172h-172zM356 459h451l-189 680l-34 145h-2l-37 -143zM662 1618v172h169v-172h-169z" />
<glyph unicode="&#xc5;" horiz-adv-x="1163" d="M51 0l410 1423h241l410 -1423h-176l-86 305h-537l-86 -305h-176zM356 459h451l-189 680l-34 145h-2l-37 -143zM438 1694q0 62 43.5 105.5t106.5 43.5q62 0 105.5 -43.5t43.5 -105.5t-44 -106t-105 -44q-63 0 -106.5 44t-43.5 106zM522 1694q0 -26 19 -45t47 -19 q26 0 44.5 19t18.5 45t-18.5 44.5t-44.5 18.5q-28 0 -47 -18.5t-19 -44.5z" />
<glyph unicode="&#xc6;" horiz-adv-x="1736" d="M51 0l758 1411h883v-154h-611v-456h432v-152h-432v-495h611v-154h-774v305h-512l-164 -305h-191zM485 459h433v803l-5 2l-41 -78z" />
<glyph unicode="&#xc7;" horiz-adv-x="1034" d="M102 707q0 387 131.5 553.5t430.5 166.5q181 0 309 -24l-10 -162q-175 31 -301 31q-101 0 -169 -25t-118 -88t-73 -174t-23 -278q0 -134 15.5 -232t45 -162t77.5 -102.5t106.5 -54t138.5 -15.5q136 0 301 33l10 -164q-141 -24 -295 -24q-16 -26 -16 -43q0 -14 13 -26.5 t31.5 -25.5t37 -29.5t31.5 -45t13 -64.5q0 -82 -52.5 -126t-135.5 -44q-80 0 -139 17l4 104q77 -25 121 -25q23 0 38.5 3t30.5 19.5t15 47.5q0 25 -20.5 47.5t-45 36.5t-45 37.5t-20.5 50.5q0 30 20 72q-241 25 -349 194t-108 521z" />
<glyph unicode="&#xc8;" horiz-adv-x="974" d="M154 0v1411h776v-154h-611v-456h433v-152h-433v-495h611v-154h-776zM309 1849h189l118 -297h-122z" />
<glyph unicode="&#xc9;" horiz-adv-x="974" d="M154 0v1411h776v-154h-611v-456h433v-152h-433v-495h611v-154h-776zM455 1552l118 297h189l-184 -297h-123z" />
<glyph unicode="&#xca;" horiz-adv-x="974" d="M154 0v1411h776v-154h-611v-456h433v-152h-433v-495h611v-154h-776zM258 1552l191 291h159l191 -291h-154l-117 201l-114 -201h-156z" />
<glyph unicode="&#xcb;" horiz-adv-x="974" d="M154 0v1411h776v-154h-611v-456h433v-152h-433v-495h611v-154h-776zM295 1618v172h172v-172h-172zM623 1618v172h172v-172h-172z" />
<glyph unicode="&#xcc;" horiz-adv-x="475" d="M-8 1849h190l117 -297h-121zM154 0v1411h165v-1411h-165z" />
<glyph unicode="&#xcd;" horiz-adv-x="475" d="M154 0v1411h165v-1411h-165zM180 1552l117 297h188l-184 -297h-121z" />
<glyph unicode="&#xce;" horiz-adv-x="475" d="M-31 1552l191 291h159l191 -291h-154l-116 201l-115 -201h-156zM154 0v1411h165v-1411h-165z" />
<glyph unicode="&#xcf;" horiz-adv-x="475" d="M-14 1618v172h170v-172h-170zM154 0v1411h165v-1411h-165zM313 1618v172h172v-172h-172z" />
<glyph unicode="&#xd0;" horiz-adv-x="1210" d="M10 645v133h152v633h434q137 0 208.5 -20t141.5 -84q162 -151 162 -605q0 -434 -150 -587q-69 -70 -143.5 -92.5t-218.5 -22.5h-434v645h-152zM330 158h202q80 0 118 2t88.5 18t82.5 49q107 107 107 478q0 372 -109 481q-32 33 -82.5 49t-88 18t-116.5 2h-202v-477h293 v-133h-293v-487z" />
<glyph unicode="&#xd1;" horiz-adv-x="1286" d="M154 0v1411h266l469 -1051l74 -182h4v1233h166v-1411h-259l-479 1057l-71 172h-5v-1229h-165zM338 1729q29 19 78.5 35.5t83.5 15.5q54 -2 146 -27t140 -27q28 -1 56.5 8.5t43.5 19t46 30.5l12 -137q-29 -19 -78 -36t-82 -16q-54 2 -147 28t-141 28q-9 0 -18 -0.5 t-16 -1.5t-16 -4t-13.5 -4t-14.5 -6.5t-12.5 -6.5t-13.5 -8t-12.5 -7.5t-13.5 -8.5l-12 -9z" />
<glyph unicode="&#xd2;" horiz-adv-x="1282" d="M102 702q0 392 122 558.5t419 166.5q295 0 416 -167t121 -558q0 -390 -121 -555t-416 -165q-297 0 -419 165t-122 555zM279 705q0 -136 13.5 -232t39.5 -161t70.5 -102.5t101.5 -53t137 -15.5t136 15.5t100 52.5t70 102t39 161t13 233q0 136 -13 232.5t-39 162t-70 103 t-100 53.5t-136 16q-134 0 -210 -47.5t-114 -171t-38 -348.5zM391 1849h191l116 -297h-120z" />
<glyph unicode="&#xd3;" horiz-adv-x="1282" d="M102 702q0 392 122 558.5t419 166.5q295 0 416 -167t121 -558q0 -390 -121 -555t-416 -165q-297 0 -419 165t-122 555zM279 705q0 -136 13.5 -232t39.5 -161t70.5 -102.5t101.5 -53t137 -15.5t136 15.5t100 52.5t70 102t39 161t13 233q0 136 -13 232.5t-39 162t-70 103 t-100 53.5t-136 16q-134 0 -210 -47.5t-114 -171t-38 -348.5zM582 1552l116 297h191l-187 -297h-120z" />
<glyph unicode="&#xd4;" horiz-adv-x="1282" d="M102 702q0 392 122 558.5t419 166.5q295 0 416 -167t121 -558q0 -390 -121 -555t-416 -165q-297 0 -419 165t-122 555zM279 705q0 -136 13.5 -232t39.5 -161t70.5 -102.5t101.5 -53t137 -15.5t136 15.5t100 52.5t70 102t39 161t13 233q0 136 -13 232.5t-39 162t-70 103 t-100 53.5t-136 16q-134 0 -210 -47.5t-114 -171t-38 -348.5zM371 1552l190 291h160l190 -291h-153l-117 201l-115 -201h-155z" />
<glyph unicode="&#xd5;" horiz-adv-x="1282" d="M102 702q0 392 122 558.5t419 166.5q295 0 416 -167t121 -558q0 -390 -121 -555t-416 -165q-297 0 -419 165t-122 555zM279 705q0 -136 13.5 -232t39.5 -161t70.5 -102.5t101.5 -53t137 -15.5t136 15.5t100 52.5t70 102t39 161t13 233q0 136 -13 232.5t-39 162t-70 103 t-100 53.5t-136 16q-134 0 -210 -47.5t-114 -171t-38 -348.5zM340 1729q29 19 79 35.5t83 15.5q54 -2 146 -27t140 -27q28 -1 56.5 8.5t43.5 19t46 30.5l12 -137q-27 -19 -76.5 -36t-83.5 -16q-54 2 -146.5 28t-139.5 28q-11 0 -22 -1t-19.5 -2.5t-19.5 -6t-16.5 -6.5 t-18 -9.5t-15.5 -9t-17 -11t-16 -10.5z" />
<glyph unicode="&#xd6;" horiz-adv-x="1282" d="M102 702q0 392 122 558.5t419 166.5q295 0 416 -167t121 -558q0 -390 -121 -555t-416 -165q-297 0 -419 165t-122 555zM279 705q0 -136 13.5 -232t39.5 -161t70.5 -102.5t101.5 -53t137 -15.5t136 15.5t100 52.5t70 102t39 161t13 233q0 136 -13 232.5t-39 162t-70 103 t-100 53.5t-136 16q-134 0 -210 -47.5t-114 -171t-38 -348.5zM395 1618v172h170v-172h-170zM723 1618v172h172v-172h-172z" />
<glyph unicode="&#xd7;" d="M131 799l72 71l317 -315l318 315l69 -69l-315 -318l317 -315l-71 -72l-318 316l-317 -316l-70 70l316 317z" />
<glyph unicode="&#xd8;" horiz-adv-x="1273" d="M102 702q0 392 122 558.5t419 166.5q197 0 313 -71l105 178l153 -2l-157 -268q123 -164 123 -562q0 -390 -121 -555t-416 -165q-178 0 -289 57l-92 -162h-153l139 242q-76 85 -111 227.5t-35 355.5zM279 705q0 -294 65 -418l526 919q-77 66 -229 66q-134 0 -210 -47.5 t-114 -171t-38 -348.5zM438 184q66 -43 203 -43q80 0 136 15.5t100 52.5t70 102t39 161t13 233q0 253 -45 378z" />
<glyph unicode="&#xd9;" horiz-adv-x="1228" d="M143 381v1030h166v-1038q0 -80 46 -135.5t113 -79t146 -23.5q58 0 111.5 14t98.5 41.5t71.5 75t26.5 107.5v1038h165l-2 -1030q0 -75 -21.5 -138t-59.5 -105t-84.5 -73.5t-100.5 -49t-104 -25.5t-99 -8q-42 0 -85 5.5t-90 19t-89.5 34t-81 52.5t-66.5 72t-44.5 95.5 t-16.5 120.5zM373 1849h190l117 -297h-121z" />
<glyph unicode="&#xda;" horiz-adv-x="1228" d="M143 381v1030h166v-1038q0 -80 46 -135.5t113 -79t146 -23.5q58 0 111.5 14t98.5 41.5t71.5 75t26.5 107.5v1038h165l-2 -1030q0 -75 -21.5 -138t-59.5 -105t-84.5 -73.5t-100.5 -49t-104 -25.5t-99 -8q-42 0 -85 5.5t-90 19t-89.5 34t-81 52.5t-66.5 72t-44.5 95.5 t-16.5 120.5zM553 1552l117 297h190l-186 -297h-121z" />
<glyph unicode="&#xdb;" horiz-adv-x="1228" d="M143 381v1030h166v-1038q0 -80 46 -135.5t113 -79t146 -23.5q58 0 111.5 14t98.5 41.5t71.5 75t26.5 107.5v1038h165l-2 -1030q0 -75 -21.5 -138t-59.5 -105t-84.5 -73.5t-100.5 -49t-104 -25.5t-99 -8q-42 0 -85 5.5t-90 19t-89.5 34t-81 52.5t-66.5 72t-44.5 95.5 t-16.5 120.5zM342 1552l190 291h160l191 -291h-154l-117 201l-116 -201h-154z" />
<glyph unicode="&#xdc;" horiz-adv-x="1228" d="M143 381v1030h166v-1038q0 -80 46 -135.5t113 -79t146 -23.5q58 0 111.5 14t98.5 41.5t71.5 75t26.5 107.5v1038h165l-2 -1030q0 -75 -21.5 -138t-59.5 -105t-84.5 -73.5t-100.5 -49t-104 -25.5t-99 -8q-42 0 -85 5.5t-90 19t-89.5 34t-81 52.5t-66.5 72t-44.5 95.5 t-16.5 120.5zM365 1618v172h172v-172h-172zM692 1618v172h172v-172h-172z" />
<glyph unicode="&#xdd;" horiz-adv-x="1075" d="M31 1411h186l320 -672h4l313 672h190l-423 -825v-586h-166v588zM475 1552l119 297h188l-184 -297h-123z" />
<glyph unicode="&#xde;" horiz-adv-x="991" d="M154 0l2 1409h163v-289h293q93 0 158.5 -29t102 -85t52 -126t15.5 -163q0 -95 -15 -164.5t-51 -124.5t-101.5 -83t-160.5 -28h-293v-317h-165zM319 461h287q41 0 72 8t50 26.5t30.5 38.5t17 53.5t7 60t1.5 69.5q0 49 -2.5 82.5t-13 70.5t-28.5 59t-51.5 36.5t-80.5 13.5 h-289v-518z" />
<glyph unicode="&#xdf;" horiz-adv-x="1110" d="M133 0v1178q0 75 18.5 134t49 95.5t73.5 60t88 32.5t97 9q156 0 242.5 -81.5t86.5 -239.5q0 -47 -13 -89.5t-39.5 -82t-42 -58t-46.5 -51.5q-43 -48 -59.5 -78t-16.5 -73q0 -36 14.5 -62t29 -37.5t44.5 -29.5l205 -125q50 -30 76.5 -49.5t58.5 -53t46 -76t14 -98.5 q0 -61 -30 -108.5t-80.5 -76.5t-112 -43.5t-129.5 -14.5q-188 0 -254 12l10 147q134 -22 239 -22q51 0 94.5 10t75 35.5t31.5 64.5q0 17 -2 30.5t-10 26t-11.5 19.5t-18.5 18.5t-19 14.5t-24.5 16t-24.5 15l-201 125q-37 23 -61 41.5t-54 51t-45.5 76.5t-15.5 99 q0 92 86 188q7 8 32 35t36.5 42t28.5 41t24.5 52.5t7.5 55.5q0 110 -40 151t-132 41q-46 0 -78.5 -14t-50.5 -34t-28 -53t-12.5 -61t-2.5 -67v-1139h-154z" />
<glyph unicode="&#xe0;" horiz-adv-x="897" d="M72 244q0 191 133 258q21 10 47.5 18t49.5 13.5t57 10t55 7t59 4.5t53.5 2.5t55 2t47.5 1.5v156q0 129 -172 129q-65 0 -152 -15t-147 -36l-11 147q144 35 324 35q311 0 311 -238v-739h-118l-13 53h-6q-122 -73 -295 -73q-122 0 -200 69t-78 195zM229 1405h189l119 -299 h-123zM231 248q0 -58 36.5 -94.5t109.5 -36.5q136 0 252 69v250q-256 -6 -340 -51q-58 -31 -58 -137z" />
<glyph unicode="&#xe1;" horiz-adv-x="897" d="M72 244q0 191 133 258q21 10 47.5 18t49.5 13.5t57 10t55 7t59 4.5t53.5 2.5t55 2t47.5 1.5v156q0 129 -172 129q-65 0 -152 -15t-147 -36l-11 147q144 35 324 35q311 0 311 -238v-739h-118l-13 53h-6q-122 -73 -295 -73q-122 0 -200 69t-78 195zM231 248 q0 -58 36.5 -94.5t109.5 -36.5q136 0 252 69v250q-256 -6 -340 -51q-58 -31 -58 -137zM406 1106l118 299h189l-185 -299h-122z" />
<glyph unicode="&#xe2;" horiz-adv-x="897" d="M72 244q0 191 133 258q21 10 47.5 18t49.5 13.5t57 10t55 7t59 4.5t53.5 2.5t55 2t47.5 1.5v156q0 129 -172 129q-65 0 -152 -15t-147 -36l-11 147q144 35 324 35q311 0 311 -238v-739h-118l-13 53h-6q-122 -73 -295 -73q-122 0 -200 69t-78 195zM199 1106l190 293h158 l190 -293h-151l-119 201l-115 -201h-153zM231 248q0 -58 36.5 -94.5t109.5 -36.5q136 0 252 69v250q-256 -6 -340 -51q-58 -31 -58 -137z" />
<glyph unicode="&#xe3;" horiz-adv-x="897" d="M72 244q0 191 133 258q21 10 47.5 18t49.5 13.5t57 10t55 7t59 4.5t53.5 2.5t55 2t47.5 1.5v156q0 129 -172 129q-65 0 -152 -15t-147 -36l-11 147q144 35 324 35q311 0 311 -238v-739h-118l-13 53h-6q-122 -73 -295 -73q-122 0 -200 69t-78 195zM158 1284 q27 19 76.5 35.5t84.5 15.5q54 -2 146.5 -26.5t140.5 -26.5q28 -1 57 8.5t43 17.5t46 29l10 -135q-27 -19 -76 -35.5t-82 -15.5q-53 2 -146.5 27t-142.5 26q-29 1 -56.5 -8t-41 -16.5t-45.5 -28.5zM231 248q0 -58 36.5 -94.5t109.5 -36.5q136 0 252 69v250q-256 -6 -340 -51 q-58 -31 -58 -137z" />
<glyph unicode="&#xe4;" horiz-adv-x="897" d="M72 244q0 191 133 258q21 10 47.5 18t49.5 13.5t57 10t55 7t59 4.5t53.5 2.5t55 2t47.5 1.5v156q0 129 -172 129q-65 0 -152 -15t-147 -36l-11 147q144 35 324 35q311 0 311 -238v-739h-118l-13 53h-6q-122 -73 -295 -73q-122 0 -200 69t-78 195zM221 1171v172h172v-172 h-172zM231 248q0 -58 36.5 -94.5t109.5 -36.5q136 0 252 69v250q-256 -6 -340 -51q-58 -31 -58 -137zM549 1171v172h172v-172h-172z" />
<glyph unicode="&#xe5;" horiz-adv-x="897" d="M72 244q0 191 133 258q21 10 47.5 18t49.5 13.5t57 10t55 7t59 4.5t53.5 2.5t55 2t47.5 1.5v156q0 129 -172 129q-65 0 -152 -15t-147 -36l-11 147q144 35 324 35q311 0 311 -238v-739h-118l-13 53h-6q-122 -73 -295 -73q-122 0 -200 69t-78 195zM231 248 q0 -58 36.5 -94.5t109.5 -36.5q136 0 252 69v250q-256 -6 -340 -51q-58 -31 -58 -137zM319 1249q0 61 44.5 105.5t105.5 44.5q63 0 106 -44t43 -106q0 -63 -43 -106t-106 -43q-62 0 -106 43t-44 106zM406 1249q0 -28 18.5 -46.5t44.5 -18.5q28 0 47 18.5t19 46.5 q0 26 -19 45t-47 19q-26 0 -44.5 -19t-18.5 -45z" />
<glyph unicode="&#xe6;" horiz-adv-x="1449" d="M72 244q0 191 133 258q21 10 47.5 18t49.5 13.5t57 10t55 7t59 4.5t53.5 2.5t55 2t47.5 1.5v150q0 129 -172 129q-68 0 -155 -12.5t-144 -32.5l-11 147q80 21 148.5 28t175.5 7q195 0 268 -96h4q89 96 287 96q172 0 252 -86q86 -92 86 -313v-119h-580q1 -100 20 -167.5 t55 -103t80 -49.5t106 -14q112 0 278 35l8 -148q-143 -30 -286 -30q-222 0 -318 118h-4q-100 -77 -189.5 -99.5t-187.5 -20.5q-128 3 -203 72t-75 192zM231 248q-2 -57 37 -94t109 -37q82 0 157 29t128 77q-30 80 -33 215q-2 0 -31 -1.5t-38 -2t-38 -2t-44 -3.5t-41 -5 t-43 -6.5t-38 -8t-37.5 -11t-29.5 -13.5q-58 -31 -58 -137zM793 582h417q0 169 -51 217q-40 37 -129 37q-118 0 -172.5 -53t-64.5 -201z" />
<glyph unicode="&#xe7;" horiz-adv-x="808" d="M82 477q0 265 104 382.5t318 117.5q156 0 244 -16l-11 -148q-140 23 -233 23q-50 0 -88 -9.5t-72 -34t-55.5 -64.5t-34 -103t-12.5 -148t12.5 -147.5t34 -101.5t55.5 -62.5t72 -32t88 -8.5q121 0 233 22l11 -147q-74 -13 -213 -18q-19 -28 -19 -43q0 -14 13 -26t32 -24.5 t37.5 -28.5t31.5 -44t13 -64q0 -82 -52.5 -126t-135.5 -44q-81 0 -140 17l4 104q77 -25 121 -25q23 0 38.5 3t30.5 19.5t15 47.5q0 25 -21 47.5t-45.5 36.5t-45.5 37.5t-21 50.5q0 28 21 68q-167 21 -248.5 137.5t-81.5 351.5z" />
<glyph unicode="&#xe8;" horiz-adv-x="905" d="M82 477q0 268 95 384t308 116q172 0 250 -86q88 -94 88 -313v-119h-581q1 -100 20 -167.5t55.5 -103t80.5 -49.5t106 -14q110 0 276 35l11 -148q-146 -30 -287 -30q-215 0 -318.5 115.5t-103.5 379.5zM244 1405h188l119 -299h-123zM248 582h418q0 168 -54 217 q-37 37 -127 37q-60 0 -99.5 -11t-70 -39t-46.5 -77.5t-21 -126.5z" />
<glyph unicode="&#xe9;" horiz-adv-x="905" d="M82 477q0 268 95 384t308 116q172 0 250 -86q88 -94 88 -313v-119h-581q1 -100 20 -167.5t55.5 -103t80.5 -49.5t106 -14q110 0 276 35l11 -148q-146 -30 -287 -30q-215 0 -318.5 115.5t-103.5 379.5zM248 582h418q0 168 -54 217q-37 37 -127 37q-60 0 -99.5 -11t-70 -39 t-46.5 -77.5t-21 -126.5zM418 1106l119 299h188l-184 -299h-123z" />
<glyph unicode="&#xea;" horiz-adv-x="905" d="M82 477q0 268 95 384t308 116q172 0 250 -86q88 -94 88 -313v-119h-581q1 -100 20 -167.5t55.5 -103t80.5 -49.5t106 -14q110 0 276 35l11 -148q-146 -30 -287 -30q-215 0 -318.5 115.5t-103.5 379.5zM215 1106l191 293h159l191 -293h-154l-117 201l-114 -201h-156z M248 582h418q0 168 -54 217q-37 37 -127 37q-60 0 -99.5 -11t-70 -39t-46.5 -77.5t-21 -126.5z" />
<glyph unicode="&#xeb;" horiz-adv-x="905" d="M82 477q0 268 95 384t308 116q172 0 250 -86q88 -94 88 -313v-119h-581q1 -100 20 -167.5t55.5 -103t80.5 -49.5t106 -14q110 0 276 35l11 -148q-146 -30 -287 -30q-215 0 -318.5 115.5t-103.5 379.5zM236 1171v172h172v-172h-172zM248 582h418q0 168 -54 217 q-37 37 -127 37q-60 0 -99.5 -11t-70 -39t-46.5 -77.5t-21 -126.5zM563 1171v172h172v-172h-172z" />
<glyph unicode="&#xec;" horiz-adv-x="438" d="M-25 1405h189l119 -299h-123zM143 0v958h156v-958h-156z" />
<glyph unicode="&#xed;" horiz-adv-x="438" d="M143 0v958h156v-958h-156zM158 1106l118 299h189l-184 -299h-123z" />
<glyph unicode="&#xee;" horiz-adv-x="438" d="M-51 1106l192 293h158l190 -293h-153l-117 201l-115 -201h-155zM143 0v958h156v-958h-156z" />
<glyph unicode="&#xef;" horiz-adv-x="438" d="M-31 1171v172h172v-172h-172zM143 0v958h156v-958h-156zM297 1171v172h172v-172h-172z" />
<glyph unicode="&#xf0;" horiz-adv-x="1036" d="M82 479q0 264 103.5 380t318.5 116q85 0 157.5 -28t114.5 -79h4q-29 172 -196 342l-332 -194v145l235 137q-137 112 -288 177h264q69 -44 145 -103l180 105l-2 -148l-79 -47q137 -140 187 -303t50 -397q0 -307 -99.5 -454.5t-340.5 -147.5q-214 0 -318 118t-104 381z M242 479q0 -106 17 -177t53 -109t81 -53t111 -15q50 0 90 9t76.5 32.5t60.5 62.5t38.5 102t14.5 148q0 105 -21 177t-60.5 109.5t-87 53t-111.5 15.5q-50 0 -88 -9t-72 -33t-55.5 -63t-34 -102t-12.5 -148z" />
<glyph unicode="&#xf1;" horiz-adv-x="980" d="M123 0v958h121l12 -57l4 -2q93 49 167.5 63.5t170.5 14.5q39 0 76 -7.5t73 -25.5t62.5 -44.5t42.5 -68t16 -92.5v-739h-155v713q0 61 -42.5 94t-88.5 33q-91 0 -177 -22.5t-126 -53.5v-764h-156zM195 1284q29 19 78.5 35.5t82.5 15.5q54 -2 146.5 -26.5t140.5 -26.5 q28 -1 57 8.5t41.5 17t46.5 29.5l13 -135q-27 -19 -76.5 -35.5t-83.5 -15.5q-53 2 -146 27t-141 26q-29 1 -56.5 -8t-41 -16.5t-45.5 -28.5z" />
<glyph unicode="&#xf2;" horiz-adv-x="1005" d="M82 477q0 265 104 382.5t318 117.5q212 0 316 -118t104 -382t-103.5 -379.5t-316.5 -115.5q-214 0 -318 116t-104 379zM242 477q0 -85 12.5 -147.5t34 -101.5t55.5 -62.5t72 -32t88 -8.5t88 8.5t71.5 32t55 62.5t33.5 101.5t12 147.5q0 106 -18 177.5t-53.5 110.5 t-80.5 55t-108 16q-50 0 -88 -9.5t-72 -34t-55.5 -64.5t-34 -103t-12.5 -148zM264 1405h189l118 -299h-122z" />
<glyph unicode="&#xf3;" horiz-adv-x="1005" d="M82 477q0 265 104 382.5t318 117.5q212 0 316 -118t104 -382t-103.5 -379.5t-316.5 -115.5q-214 0 -318 116t-104 379zM242 477q0 -85 12.5 -147.5t34 -101.5t55.5 -62.5t72 -32t88 -8.5t88 8.5t71.5 32t55 62.5t33.5 101.5t12 147.5q0 106 -18 177.5t-53.5 110.5 t-80.5 55t-108 16q-50 0 -88 -9.5t-72 -34t-55.5 -64.5t-34 -103t-12.5 -148zM440 1106l119 299h189l-185 -299h-123z" />
<glyph unicode="&#xf4;" horiz-adv-x="1005" d="M82 477q0 265 104 382.5t318 117.5q212 0 316 -118t104 -382t-103.5 -379.5t-316.5 -115.5q-214 0 -318 116t-104 379zM229 1106l191 293h160l190 -293h-154l-116 201l-115 -201h-156zM242 477q0 -85 12.5 -147.5t34 -101.5t55.5 -62.5t72 -32t88 -8.5t88 8.5t71.5 32 t55 62.5t33.5 101.5t12 147.5q0 106 -18 177.5t-53.5 110.5t-80.5 55t-108 16q-50 0 -88 -9.5t-72 -34t-55.5 -64.5t-34 -103t-12.5 -148z" />
<glyph unicode="&#xf5;" horiz-adv-x="1005" d="M82 477q0 265 104 382.5t318 117.5q212 0 316 -118t104 -382t-103.5 -379.5t-316.5 -115.5q-214 0 -318 116t-104 379zM201 1284q29 19 78.5 35.5t82.5 15.5q54 -2 146.5 -26.5t140.5 -26.5q29 -1 57 8t44.5 18.5t44.5 28.5l12 -135q-27 -19 -76.5 -35.5t-83.5 -15.5 q-53 2 -146 27t-141 26q-29 1 -56.5 -8t-41 -16.5t-45.5 -28.5zM242 477q0 -85 12.5 -147.5t34 -101.5t55.5 -62.5t72 -32t88 -8.5t88 8.5t71.5 32t55 62.5t33.5 101.5t12 147.5q0 106 -18 177.5t-53.5 110.5t-80.5 55t-108 16q-50 0 -88 -9.5t-72 -34t-55.5 -64.5t-34 -103 t-12.5 -148z" />
<glyph unicode="&#xf6;" horiz-adv-x="1005" d="M82 477q0 265 104 382.5t318 117.5q212 0 316 -118t104 -382t-103.5 -379.5t-316.5 -115.5q-214 0 -318 116t-104 379zM242 477q0 -85 12.5 -147.5t34 -101.5t55.5 -62.5t72 -32t88 -8.5t88 8.5t71.5 32t55 62.5t33.5 101.5t12 147.5q0 106 -18 177.5t-53.5 110.5 t-80.5 55t-108 16q-50 0 -88 -9.5t-72 -34t-55.5 -64.5t-34 -103t-12.5 -148zM258 1171v172h172v-172h-172zM586 1171v172h172v-172h-172z" />
<glyph unicode="&#xf7;" horiz-adv-x="1099" d="M111 473v100h876v-100h-876zM473 154v147h148v-147h-148zM473 748v147h148v-147h-148z" />
<glyph unicode="&#xf8;" horiz-adv-x="1005" d="M82 477q0 265 104 382.5t318 117.5q116 0 190 -31l62 109h151l-102 -181q119 -119 119 -397q0 -264 -103.5 -379.5t-316.5 -115.5q-114 0 -193 30l-61 -106l-154 2l103 176q-117 120 -117 393zM242 477q0 -157 43 -241l333 581q-52 19 -114 19q-50 0 -88 -9.5t-72 -34 t-55.5 -64.5t-34 -103t-12.5 -148zM385 143q45 -18 119 -18q50 0 88 8.5t71.5 32t55 62.5t33.5 101.5t12 147.5q0 163 -45 248z" />
<glyph unicode="&#xf9;" horiz-adv-x="980" d="M113 219v739h155v-712q0 -61 42.5 -94t90.5 -33q92 0 177 22.5t124 53.5v763h156v-958h-119l-14 57l-4 2q-94 -48 -169 -62.5t-169 -14.5q-39 0 -76 7.5t-73 25t-62.5 44t-42.5 68t-16 92.5zM242 1405h188l119 -299h-123z" />
<glyph unicode="&#xfa;" horiz-adv-x="980" d="M113 219v739h155v-712q0 -61 42.5 -94t90.5 -33q92 0 177 22.5t124 53.5v763h156v-958h-119l-14 57l-4 2q-94 -48 -169 -62.5t-169 -14.5q-39 0 -76 7.5t-73 25t-62.5 44t-42.5 68t-16 92.5zM430 1106l119 299h188l-184 -299h-123z" />
<glyph unicode="&#xfb;" horiz-adv-x="980" d="M113 219v739h155v-712q0 -61 42.5 -94t90.5 -33q92 0 177 22.5t124 53.5v763h156v-958h-119l-14 57l-4 2q-94 -48 -169 -62.5t-169 -14.5q-39 0 -76 7.5t-73 25t-62.5 44t-42.5 68t-16 92.5zM219 1106l191 293h157l191 -293h-152l-119 201l-114 -201h-154z" />
<glyph unicode="&#xfc;" horiz-adv-x="980" d="M113 219v739h155v-712q0 -61 42.5 -94t90.5 -33q92 0 177 22.5t124 53.5v763h156v-958h-119l-14 57l-4 2q-94 -48 -169 -62.5t-169 -14.5q-39 0 -76 7.5t-73 25t-62.5 44t-42.5 68t-16 92.5zM233 1171v172h173v-172h-173zM561 1171v172h172v-172h-172z" />
<glyph unicode="&#xfd;" horiz-adv-x="862" d="M0 -467l10 148q78 -21 121 -21q40 0 72.5 15.5t53 36t38.5 57.5t27 63t22 70l16 59l-337 997h167l213 -663l29 -117h2l31 117l203 663h168l-357 -1112q-15 -49 -27 -82t-29.5 -71t-35 -62t-43.5 -48t-56 -37t-70 -21t-89 -8q-51 0 -129 16zM375 1106l117 299h190 l-186 -299h-121z" />
<glyph unicode="&#xfe;" horiz-adv-x="991" d="M133 -475v1950h156v-535h4q90 37 221 37q210 0 302.5 -115.5t92.5 -384.5q0 -268 -92 -382.5t-301 -114.5q-125 0 -223 36h-4v-491h-156zM289 166q64 -26 113 -36.5t114 -10.5q62 0 103.5 15.5t72 55t44.5 110t14 177.5q0 142 -27 222t-76.5 109.5t-132.5 29.5 q-66 0 -114.5 -10.5t-110.5 -36.5v-625z" />
<glyph unicode="&#xff;" horiz-adv-x="862" d="M0 -467l10 148q7 -1 33 -8t45.5 -10t42.5 -3q40 0 72.5 15.5t53 36t38.5 57.5t27 63t22 70l16 59l-337 997h167l213 -663l29 -117h2l31 117l203 663h168l-357 -1112q-15 -49 -27 -82t-29.5 -71t-35 -62t-43.5 -48t-56 -37t-70 -21t-89 -8q-51 0 -129 16zM180 1171v172 h172v-172h-172zM508 1171v172h172v-172h-172z" />
<glyph unicode="&#x152;" horiz-adv-x="1837" d="M102 702q0 392 122 558.5t419 166.5q131 0 216.5 -38t156.5 -103h2v125h774v-154h-610v-456h432v-152h-432v-495h610v-154h-774v125h-2q-71 -66 -156 -103.5t-217 -37.5q-297 0 -419 164t-122 554zM279 705q0 -136 13.5 -232t39.5 -161t70.5 -102.5t101.5 -53t137 -15.5 t136 15.5t100 52.5t70 102t39 161t13 233q0 136 -13 232.5t-39 162t-70 103t-100 53.5t-136 16q-134 0 -210 -47.5t-114 -171t-38 -348.5z" />
<glyph unicode="&#x153;" horiz-adv-x="1587" d="M82 477q0 265 104 382.5t318 117.5q123 0 198.5 -38.5t135.5 -145.5h2q51 110 124.5 147t200.5 37q172 0 252 -86q88 -94 88 -313l-2 -119h-579q1 -100 20 -167.5t55 -103t80 -49.5t107 -14q110 0 276 35l11 -148q-146 -30 -287 -30q-125 0 -202 40t-140 152l-2 -2 q-69 -116 -140.5 -153t-197.5 -37q-214 0 -318 116t-104 379zM242 477q0 -85 12.5 -147.5t34 -101.5t55.5 -62.5t72 -32t88 -8.5t88 8.5t71.5 32t55 62.5t33.5 101.5t12 147.5q0 106 -18 177.5t-53.5 110.5t-80.5 55t-108 16q-50 0 -88 -9.5t-72 -34t-55.5 -64.5t-34 -103 t-12.5 -148zM928 582h420q0 168 -54 217q-37 37 -127 37q-60 0 -100 -11t-70 -39t-46.5 -77.5t-22.5 -126.5z" />
<glyph unicode="&#x178;" horiz-adv-x="1075" d="M31 1411h186l320 -672h4l313 672h190l-423 -825v-586h-166v588zM289 1618v172h172v-172h-172zM616 1618v172h172v-172h-172z" />
<glyph unicode="&#x2c6;" d="M252 1106l190 293h158l191 -293h-152l-119 201l-114 -201h-154z" />
<glyph unicode="&#x2dc;" d="M211 1284q27 19 77 35.5t83 15.5q56 -2 147.5 -26.5t138.5 -26.5q29 -1 57 8t44.5 18.5t44.5 28.5l12 -135q-27 -19 -76.5 -35.5t-83.5 -15.5q-53 2 -145 27t-141 26q-29 1 -56.5 -7.5t-42 -17t-45.5 -28.5z" />
<glyph unicode="&#x2000;" horiz-adv-x="924" />
<glyph unicode="&#x2001;" horiz-adv-x="1849" />
<glyph unicode="&#x2002;" horiz-adv-x="924" />
<glyph unicode="&#x2003;" horiz-adv-x="1849" />
<glyph unicode="&#x2004;" horiz-adv-x="616" />
<glyph unicode="&#x2005;" horiz-adv-x="462" />
<glyph unicode="&#x2006;" horiz-adv-x="308" />
<glyph unicode="&#x2007;" horiz-adv-x="308" />
<glyph unicode="&#x2008;" horiz-adv-x="231" />
<glyph unicode="&#x2009;" horiz-adv-x="369" />
<glyph unicode="&#x200a;" horiz-adv-x="102" />
<glyph unicode="&#x2010;" horiz-adv-x="684" d="M109 451v141h466v-141h-466z" />
<glyph unicode="&#x2011;" horiz-adv-x="684" d="M109 451v141h466v-141h-466z" />
<glyph unicode="&#x2012;" horiz-adv-x="684" d="M109 451v141h466v-141h-466z" />
<glyph unicode="&#x2013;" horiz-adv-x="1067" d="M94 473v100h877v-100h-877z" />
<glyph unicode="&#x2014;" horiz-adv-x="1538" d="M111 473v100h1316v-100h-1316z" />
<glyph unicode="&#x2018;" horiz-adv-x="514" d="M123 1040l8 177q15 38 62 122l65 109h117q-53 -144 -68 -213q0 -55 8 -195h-192z" />
<glyph unicode="&#x2019;" horiz-adv-x="514" d="M139 1018q45 120 70 213l-8 196h190l-6 -176q-34 -77 -63 -125q-23 -43 -66 -108h-117z" />
<glyph unicode="&#x201a;" horiz-adv-x="514" d="M139 -219q49 133 70 213l-8 196h190l-6 -176q-34 -77 -63 -125q-23 -43 -66 -108h-117z" />
<glyph unicode="&#x201c;" horiz-adv-x="800" d="M123 1040l8 177q17 44 62 124l65 109h117v-2q-50 -133 -68 -211q0 -57 8 -197h-192zM410 1042l8 177q20 50 61 124l66 107h117q-50 -133 -68 -211q-1 -1 0 -33t3 -85.5t3 -78.5h-190z" />
<glyph unicode="&#x201d;" horiz-adv-x="802" d="M139 1020q47 124 70 211l-8 196h190l-6 -176q-34 -77 -63 -125q-27 -50 -66 -106h-117zM428 1020q49 130 68 213q1 1 -0.5 33.5t-3.5 84.5t-3 79h191l-6 -177q-22 -50 -64 -125q-28 -51 -65 -108h-117z" />
<glyph unicode="&#x201e;" horiz-adv-x="802" d="M139 -240q45 120 70 213l-8 197h190l-6 -176q-34 -77 -63 -125q-26 -48 -66 -109h-117zM428 -238q51 140 68 213q1 1 -0.5 33.5t-3.5 84.5t-3 79h191l-6 -176q-22 -50 -64 -125q-31 -57 -65 -109h-117z" />
<glyph unicode="&#x2022;" horiz-adv-x="671" d="M131 725q0 85 60 145t145 60t145 -60t60 -145t-60 -145t-145 -60t-145 60t-60 145z" />
<glyph unicode="&#x2026;" horiz-adv-x="1284" d="M164 -2v190h192v-190h-192zM549 -2v190h190v-190h-190zM930 -2v190h190v-190h-190z" />
<glyph unicode="&#x202f;" horiz-adv-x="369" />
<glyph unicode="&#x2039;" horiz-adv-x="675" d="M76 453v16l319 385h178l-333 -391l317 -379h-176z" />
<glyph unicode="&#x203a;" horiz-adv-x="675" d="M102 854h179l319 -385v-16l-303 -369h-178l317 379z" />
<glyph unicode="&#x205f;" horiz-adv-x="462" />
<glyph unicode="&#x20ac;" horiz-adv-x="882" d="M-20 367v92h100q-2 14 -2 43q0 25 2 39h-100v92h106q54 389 453 389q130 0 262 -29l-13 -149q-79 20 -128.5 27.5t-122.5 7.5q-115 0 -188.5 -54.5t-96.5 -191.5h410l-41 -92h-379v-37q0 -31 2 -45h338l-41 -92h-289q25 -133 97.5 -186.5t187.5 -53.5q49 0 94.5 5t70 10 t86.5 18l11 -148q-137 -30 -260 -30q-397 0 -451 385h-108z" />
<glyph unicode="&#x2122;" horiz-adv-x="1161" d="M98 1323v86h365v-86h-133v-434l-99 -2v436h-133zM524 887v522h140l106 -375l10 -57h4l11 57l106 375h141v-522h-100l4 381h-2l-20 -99l-86 -282h-113l-84 284l-20 95l-5 2l7 -381h-99z" />
<glyph unicode="&#xe000;" horiz-adv-x="962" d="M0 0v963h963v-963h-963z" />
<glyph unicode="&#xfb01;" horiz-adv-x="1126" d="M61 815v121l148 22v259q2 136 68.5 208t199.5 72q75 0 114 -6t105 -23l-8 -139q-58 20 -93 26.5t-101 6.5q-77 0 -104.5 -47t-27.5 -127q3 -124 3 -230h266v-143h-266v-815h-156v815h-148zM813 1163v193h191v-193h-191zM831 958h156v-958h-153z" />
<glyph unicode="&#xfb02;" horiz-adv-x="1120" d="M61 815v121l148 22v259q2 136 68.5 208t199.5 72q75 0 114 -6t105 -23l-8 -139q-58 20 -93 26.5t-101 6.5q-77 0 -104.5 -47t-27.5 -127q3 -124 3 -230h266v-143h-266v-815h-156v815h-148zM829 1475h158v-1475h-156z" />
</font>
</defs>
</svg>
