<?xml version="1.0" encoding="UTF-8" standalone="no"?>
<svg width="66px" height="66px" viewBox="0 0 66 66" version="1.1" xmlns="http://www.w3.org/2000/svg" xmlns:xlink="http://www.w3.org/1999/xlink">
    <defs></defs>
    <g stroke="none" stroke-width="1" fill="none" fill-rule="evenodd">
        <g>
            <g>
                <path d="M45.4293125,49.4300838 L12.1348333,49.4300838 L12.1336875,49.4300838 L18.2149688,37.3562304 L39.3508958,37.3562304 L35.3064479,29.3231204 L22.2604479,29.3231204 L22.2599896,29.3231204 L36.9915104,0.0703769634 L28.9900417,0.0703769634 L0.0853645833,57.4631937 L49.4736458,57.4631937 L45.4293125,49.4300838 Z" fill="#BCBEC0"></path>
                <path d="M37.1997083,16.3714555 L32.9928958,24.7274241 L35.3064479,29.3231204 L39.3508958,37.3562304 L18.2149688,37.3562304 L18.214625,37.3569215 L22.3893542,45.7826911 L43.593,45.7826911 L45.4293125,49.4300838 L49.4736458,57.4631937 L0.0853645833,57.4631937 L4.32907292,65.8895393 L62.1383125,65.8895393 L37.1997083,16.3714555 Z" fill="#FFFFFF"></path>
                <g transform="translate(12.031250, 0.000000)" fill="#E31D3C">
                    <path d="M6.183375,37.3569215 L0.103583333,49.4300838 L8.52190625,49.4300838 L10.3581042,45.7826911 L6.183375,37.3569215 Z"></path>
                    <path d="M24.9612917,0.0703769634 L24.9602604,0.0703769634 L10.2291979,29.3231204 L18.6446563,29.3231204 L18.6475208,29.3231204 L25.1684583,16.3714555 L50.1070625,65.8895393 L53.8658542,57.4631937 L24.9612917,0.0703769634 Z"></path>
                </g>
            </g>
        </g>
    </g>
</svg>